<svg xmlns="http://www.w3.org/2000/svg" viewBox="0 0 273.54 274.96"><defs><style>.cls-1{fill:#f7f7f7;stroke:#f7f7f7;stroke-miterlimit:10;}</style></defs><title>Zasób 1</title><g id="Warstwa_2" data-name="Warstwa 2"><g id="Layer_1" data-name="Layer 1"><path class="cls-1" d="M193.22,74.82,193,73.47a3.86,3.86,0,0,0-1-7.66l-.18-1.35a5.23,5.23,0,1,1,1.35,10.36Z"/><path class="cls-1" d="M64.17,218.61a7.48,7.48,0,0,1-6.52-3.83l1.7-.95A5.51,5.51,0,0,0,69,208.48l1.7-.95a7.46,7.46,0,0,1-6.5,11.08Z"/><path class="cls-1" d="M237,173.23A7.59,7.59,0,0,1,247.17,162l-1.33,1.47a5.61,5.61,0,0,0-7.54,8.31Z"/><path class="cls-1" d="M74.34,12.41a4,4,0,0,1-.23-8l.06,1a3,3,0,1,0,.35,5.93l.06,1Z"/><path class="cls-1" d="M270.83,147.74,270,146.6a4,4,0,1,0-4.7-6.44l-.83-1.14a5.39,5.39,0,0,1,6.36,8.71Z"/><path class="cls-1" d="M155.35,175.65l-1.15-1.78a6,6,0,1,0-6.5-10.1L146.56,162a8.12,8.12,0,0,1,8.79,13.66Z"/><path class="cls-1" d="M4.2,27.83A4.14,4.14,0,0,1,.69,25.9l.91-.57a3.06,3.06,0,0,0,5.18-3.26l.91-.57a4.14,4.14,0,0,1-3.5,6.34Z"/><path class="cls-1" d="M260.44,51.11a5.38,5.38,0,0,1,8.4-6.71l-1.1.88a4,4,0,0,0-6.21,5Z"/><path class="cls-1" d="M113.7,172.57a8.49,8.49,0,0,1,10.8-13.09l-1.41,1.71a6.27,6.27,0,0,0-8.83.85,6.28,6.28,0,0,0,.85,8.83Z"/><path class="cls-1" d="M230.89,10.51h0a3.2,3.2,0,1,1-1.44.35,3.19,3.19,0,0,1,1.44-.35m0-1.43A4.62,4.62,0,1,0,235,11.62a4.6,4.6,0,0,0-4.13-2.54Z"/><path class="cls-1" d="M48.51,100.3h.27a2.57,2.57,0,0,1-.26,5.13h-.27a2.57,2.57,0,0,1,.27-5.12m0-1.15a3.72,3.72,0,0,0-.38,7.41l.39,0a3.72,3.72,0,0,0,.38-7.41l-.39,0Z"/><path class="cls-1" d="M251.7,80.83a2.69,2.69,0,0,1,.75,5.27,2.66,2.66,0,0,1-.75.11,2.69,2.69,0,0,1-.75-5.27,2.66,2.66,0,0,1,.75-.11m0-1.2a3.89,3.89,0,1,0,3.73,2.8,3.87,3.87,0,0,0-3.73-2.8Z"/><path class="cls-1" d="M116.72,7.71h0a4,4,0,1,1-3.67,2.36,4,4,0,0,1,3.67-2.36m0-1.79a5.82,5.82,0,1,0,2.41.52,5.82,5.82,0,0,0-2.41-.52Z"/><path class="cls-1" d="M194,129.51h0a3,3,0,0,1,0,5.91,3.08,3.08,0,0,1-.51,0,3,3,0,0,1,.5-5.87m0-1.32a4.28,4.28,0,0,0-.72,8.49,4.37,4.37,0,0,0,.73.06,4.28,4.28,0,0,0,0-8.55Z"/><path class="cls-1" d="M46,135.82h0A3.49,3.49,0,1,1,43.81,142,3.48,3.48,0,0,1,46,135.82m0-1.56a5,5,0,1,0,3.11,1.07A5,5,0,0,0,46,134.27Z"/><path class="cls-1" d="M13.26,254h0a2.43,2.43,0,1,1-1.47.5,2.42,2.42,0,0,1,1.47-.5m0-1.08a3.51,3.51,0,1,0,2.8,1.39,3.5,3.5,0,0,0-2.8-1.39Z"/><path class="cls-1" d="M130.82,61.19h0a4.41,4.41,0,1,1-1.51.27,4.42,4.42,0,0,1,1.51-.27m0-2a6.37,6.37,0,1,0,6,4.19,6.36,6.36,0,0,0-6-4.19Z"/><path class="cls-1" d="M132.2,245.29h0a2.51,2.51,0,1,1-1.11,4.76,2.51,2.51,0,0,1,1.11-4.76m0-1.12a3.63,3.63,0,1,0,1.6.38,3.63,3.63,0,0,0-1.6-.37Z"/><path class="cls-1" d="M98.26,43l4.07,4.5-6,.56-4.07-4.5,6-.55m.61-1.56-9.76.9,6.57,7.27,9.76-.9-6.57-7.27Z"/><path class="cls-1" d="M8.12,187.43l4.17,4.41-1,6L7.1,193.41l1-6m-1-3.2L5.5,193.89,12.23,201l1.66-9.66-6.73-7.12Z"/><path class="cls-1" d="M230.68,249.54l8.07,4,1.65,8.86-8.07-4-1.65-8.86m-3-4,2.66,14.31,13,6.46L240.73,252l-13-6.46Z"/><path class="cls-1" d="M49.17,39.88l4.41,1.55L55,45.9l-4.41-1.55-1.4-4.46M47.38,38l2.27,7.21,7.13,2.51L54.5,40.54,47.38,38Z"/><path class="cls-1" d="M134.25,191.85l.63,5.33L131,200.89l-.63-5.33,3.89-3.71m1-2.78-6.28,6,1,8.62,6.28-6-1-8.62Z"/><path class="cls-1" d="M78.81,136.27l4.26,2.36.67,4.82-4.26-2.36-.67-4.82m-1.52-2.21,1.08,7.79,6.88,3.81-1.08-7.79-6.88-3.81Z"/><path class="cls-1" d="M96.51,259.31l-2,4.08-4.46.85,2-4.08,4.46-.85m2-1.52-7.2,1.38-3.22,6.59,7.2-1.38,3.22-6.59Z"/><path class="cls-1" d="M144.27,108.1l-5,7.55-9.05.51,5-7.55,9.05-.51m4.34-2.48-14.63.82-8.12,12.19,14.63-.82,8.12-12.2Z"/><path class="cls-1" d="M28.76,5.57l5.94,6.17-1.37,8.45L27.39,14l1.38-8.45m-1.4-4.5L25.14,14.72l9.59,10L36.95,11l-9.59-10Z"/><path class="cls-1" d="M11.49,64.61a1,1,0,0,1-.93-1.46,4.47,4.47,0,0,1,6.4-2,2.42,2.42,0,0,0,3.5-1.09,4.47,4.47,0,0,1,6.4-2,1,1,0,0,1-1,1.77,2.42,2.42,0,0,0-3.5,1.09,4.47,4.47,0,0,1-6.4,2A2.42,2.42,0,0,0,12.42,64,1,1,0,0,1,11.49,64.61Z"/><path class="cls-1" d="M212.71,108.55h0a.67.67,0,0,1-.64-.69,1.58,1.58,0,0,0-1.71-1.67,2.92,2.92,0,0,1-3.12-3.06,1.61,1.61,0,0,0-.47-1.23,1.62,1.62,0,0,0-1.24-.45.69.69,0,0,1-.71-.63.67.67,0,0,1,.63-.71,3,3,0,0,1,2.25.83,2.93,2.93,0,0,1,.87,2.23,1.58,1.58,0,0,0,1.71,1.67,3,3,0,0,1,2.25.83,2.93,2.93,0,0,1,.87,2.23A.67.67,0,0,1,212.71,108.55Z"/><path class="cls-1" d="M198.27,236.65a.61.61,0,0,1,0-1.21,1.43,1.43,0,0,0,1.44-1.62,2.65,2.65,0,0,1,2.63-3,1.43,1.43,0,0,0,1.44-1.62.61.61,0,0,1,1.2-.13,2.64,2.64,0,0,1-2.63,3,1.43,1.43,0,0,0-1.44,1.62,2.65,2.65,0,0,1-2.63,3Z"/><path class="cls-1" d="M42,184.86a1,1,0,0,1-.6-.21,4.16,4.16,0,0,1-.37-6.22,2.26,2.26,0,0,0-.2-3.41,4.16,4.16,0,0,1-.37-6.22,1,1,0,0,1,1.36,1.33,2.25,2.25,0,0,0,.2,3.41,4.16,4.16,0,0,1,.37,6.22,2.25,2.25,0,0,0,.2,3.41,1,1,0,0,1-.6,1.7Z"/><path class="cls-1" d="M52.33,252.43a4.86,4.86,0,0,1-3.09-1.09,4.92,4.92,0,0,1-1.8-3.59,2.66,2.66,0,0,0-3.12-2.53,4.9,4.9,0,0,1-5.7-4.62,1.12,1.12,0,0,1,2.24-.12A2.65,2.65,0,0,0,44,243a4.9,4.9,0,0,1,5.7,4.62,2.65,2.65,0,0,0,3.12,2.53,1.12,1.12,0,0,1,.34,2.22A5.43,5.43,0,0,1,52.33,252.43Z"/><path class="cls-1" d="M5.67,99.32H5.55a.76.76,0,0,1,0-1.52A1.78,1.78,0,0,0,7,97.25a1.83,1.83,0,0,0,.5-1.41,3.34,3.34,0,0,1,.93-2.56,3.37,3.37,0,0,1,2.53-1,1.8,1.8,0,0,0,1.89-2,.76.76,0,1,1,1.52-.09A3.31,3.31,0,0,1,10.9,93.8a1.79,1.79,0,0,0-1.39.54A1.84,1.84,0,0,0,9,95.75a3.31,3.31,0,0,1-3.34,3.57Z"/><path class="cls-1" d="M97.95,106.45a3.51,3.51,0,0,1-1.71-.44,3.56,3.56,0,0,1-1.74-2.33A1.92,1.92,0,0,0,92,102.26a3.55,3.55,0,0,1-4.65-2.58.81.81,0,0,1,1.58-.37,1.92,1.92,0,0,0,2.54,1.41,3.55,3.55,0,0,1,4.65,2.58,1.92,1.92,0,0,0,2.54,1.41.81.81,0,0,1,.52,1.54A3.74,3.74,0,0,1,97.95,106.45Z"/><path class="cls-1" d="M12.88,142.56a1,1,0,0,1-.7-.29,4.27,4.27,0,0,1,.37-6.39,2.32,2.32,0,0,0,.2-3.5,4.27,4.27,0,0,1,.37-6.39,1,1,0,0,1,1.23,1.52,2.31,2.31,0,0,0-.2,3.5,4.27,4.27,0,0,1-.37,6.39,2.31,2.31,0,0,0-.2,3.5,1,1,0,0,1-.7,1.66Z"/><path class="cls-1" d="M155.75,44.6a4.3,4.3,0,0,1-1.49-.27.94.94,0,0,1,.65-1.77,2.22,2.22,0,0,0,3-1.56,4.11,4.11,0,0,1,5.45-2.84,2.22,2.22,0,0,0,3-1.55.94.94,0,1,1,1.82.48,4.1,4.1,0,0,1-5.45,2.84,2.23,2.23,0,0,0-3,1.56,4.13,4.13,0,0,1-2.09,2.65A4,4,0,0,1,155.75,44.6Z"/><path class="cls-1" d="M207.46,155.23a.55.55,0,0,1-.38-.15l-3.63-3.33a.56.56,0,0,1,.75-.82l3.63,3.33a.56.56,0,0,1-.38,1Z"/><path class="cls-1" d="M88.68,181.78a.59.59,0,0,1-.44-.2l-3.44-3.89a.59.59,0,0,1,.88-.78l3.44,3.89a.59.59,0,0,1-.44,1Z"/><path class="cls-1" d="M64.52,73.56a.7.7,0,0,1-.16-1.38l6-1.39a.7.7,0,1,1,.31,1.36l-6,1.39Z"/><path class="cls-1" d="M189.6,20.45a.66.66,0,0,1-.15-1.31l5.71-1.37a.66.66,0,1,1,.31,1.29l-5.71,1.37Z"/><path class="cls-1" d="M265.42,242.91a.61.61,0,0,1-.59-.47l-1.25-5.23a.61.61,0,0,1,1.18-.28l1.25,5.23a.61.61,0,0,1-.45.73Z"/><path class="cls-1" d="M167.12,248.83a.59.59,0,0,1-.54-.35l-2.11-4.76a.59.59,0,0,1,1.08-.48l2.11,4.76a.59.59,0,0,1-.54.83Z"/><path class="cls-1" d="M164.8,211.65a1,1,0,0,1-.06-2l8.69-.51a1,1,0,0,1,.12,2l-8.69.51Z"/><path class="cls-1" d="M107.86,223.51a.52.52,0,0,1-.5-.37l-1.31-4.44a.52.52,0,0,1,1-.29l1.31,4.44a.52.52,0,0,1-.35.65Z"/><path class="cls-1" d="M270.56,192.14h-.1l-7.58-.91a.86.86,0,1,1,.21-1.71l7.58.91a.86.86,0,0,1-.1,1.72Z"/><polygon class="cls-1" points="233.1 133.05 231.51 131.47 239.53 123.41 247.59 131.43 246.01 133.01 239.54 126.58 233.1 133.05"/><polygon class="cls-1" points="198.4 196.05 196.96 195.23 200.31 189.36 194.45 186 195.27 184.57 202.58 188.75 198.4 196.05"/><polygon class="cls-1" points="151.69 274.26 147.34 268.17 148.54 267.32 152.04 272.2 156.92 268.7 157.78 269.9 151.69 274.26"/><polygon class="cls-1" points="226.23 52.75 218.24 51.24 219.75 43.25 221.32 43.55 220.11 49.97 226.53 51.18 226.23 52.75"/><polygon class="cls-1" points="159.78 10.98 151.98 4.43 153.27 2.9 159.53 8.15 164.79 1.88 166.33 3.17 159.78 10.98"/><polygon class="cls-1" points="166.31 93.85 165.31 88.13 159.58 89.12 159.34 87.72 166.47 86.48 167.71 93.61 166.31 93.85"/><polygon class="cls-1" points="266.89 14.37 260.65 9.41 261.62 8.18 266.64 12.16 270.61 7.14 271.84 8.12 266.89 14.37"/><polygon class="cls-1" points="199.2 270.26 196.16 264.55 190.45 267.59 189.7 266.19 196.81 262.4 200.6 269.51 199.2 270.26"/><polygon class="cls-1" points="234.58 207.6 226.75 199.84 228.28 198.3 234.56 204.53 240.79 198.25 242.33 199.78 234.58 207.6"/></g></g></svg>