<svg xmlns="http://www.w3.org/2000/svg" viewBox="0 0 193 164.47"><defs><style>.cls-1,.cls-8{fill:#fff;}.cls-1,.cls-2,.cls-3,.cls-4,.cls-5,.cls-6,.cls-7,.cls-8{stroke:#ccb286;}.cls-1,.cls-2,.cls-3{stroke-miterlimit:10;}.cls-2,.cls-4,.cls-6{fill:#f7f1e0;}.cls-3{fill:#ccefff;}.cls-4,.cls-5,.cls-8{stroke-linecap:round;}.cls-4,.cls-5,.cls-6,.cls-7,.cls-8{stroke-linejoin:round;stroke-width:2px;}.cls-5,.cls-7{fill:none;}</style></defs><title>Zasób 1</title><g id="Warstwa_2" data-name="Warstwa 2"><g id="Illustrations"><polygon class="cls-1" points="86.25 146.47 96.25 153.47 105.25 149.47 105.25 144.47 101.25 140.47 101.25 144.47 97.25 146.47 97.25 134.47 90.25 130.47 92.25 138.47 86.25 146.47"/><polygon class="cls-1" points="35.75 163.47 26.75 163.47 22.75 158.47 22.75 121.47 17.75 115.47 39.75 115.47 39.75 158.47 35.75 163.47"/><polygon class="cls-1" points="49.25 163.47 55.25 155.47 61.25 163.47 49.25 163.47"/><polygon class="cls-1" points="142.25 163.47 136.25 155.47 130.25 163.47 142.25 163.47"/><polygon class="cls-1" points="180 163.47 167.25 137.53 167.25 125.47 170.75 121.47 155.25 121.47 158.75 125.47 158.75 137.53 146 163.47 180 163.47"/><polygon class="cls-1" points="102.75 70.28 102.75 61.09 107.02 56.47 84.48 56.47 88.75 61.09 88.75 70.28 69.75 81.24 69.75 111.14 95.75 125.97 121.75 111.14 121.75 81.24 102.75 70.28"/><polygon class="cls-2" points="88.87 148.31 96.25 153.47 105.25 149.47 105.25 144.47 101.25 140.47 101.25 144.47 97.25 146.47 97.25 134.47 93.87 132.54 95.17 138.97 88.87 148.31"/><polygon class="cls-3" points="136.25 163.47 142.25 163.47 136.25 155.47 136.25 163.47"/><polygon class="cls-2" points="55.25 163.47 61.25 163.47 55.25 155.47 55.25 163.47"/><polygon class="cls-2" points="157.76 151.47 151.75 163.47 180 163.47 174.1 151.47 157.76 151.47"/><polygon class="cls-2" points="27.75 139.47 27.75 163.47 35.75 163.47 39.75 158.47 39.75 139.47 27.75 139.47"/><polygon class="cls-2" points="121.75 111.14 121.75 96.47 116.55 92.47 111.35 96.45 106.15 92.47 100.95 96.45 95.75 92.47 90.55 96.45 85.35 92.47 80.15 96.45 74.95 92.47 74.75 92.63 74.75 107.85 101.03 122.96 121.75 111.14"/><polygon class="cls-4" points="128 20.14 120.33 12.27 116.8 23.41 128 20.14"/><polygon class="cls-4" points="128.94 60.02 131.09 53.61 124 54.81 128.94 60.02"/><polygon class="cls-4" points="89.38 41.29 89.42 34.53 83.06 37.88 89.38 41.29"/><polyline class="cls-5" points="51.53 26.25 54.24 30.45 59.03 29.02 61.75 33.22 66.54 31.79 69.26 35.99"/><polyline class="cls-5" points="133.01 32.27 130.3 36.47 125.51 35.04 122.79 39.24 118 37.81 115.28 42.01"/><polyline class="cls-5" points="102.37 1 103.39 5.89 98.98 8.24 100 13.14 95.59 15.49 96.61 20.38"/><polygon class="cls-6" points="69.88 14.26 66.34 13.55 65.64 10.02 67.76 7.9 71.29 8.6 72 12.14 69.88 14.26"/><polygon class="cls-6" points="59.88 51.09 56.34 50.39 55.64 46.85 57.76 44.73 61.29 45.44 62 48.97 59.88 51.09"/><polygon class="cls-7" points="35.75 163.47 26.75 163.47 22.75 158.47 22.75 121.47 17.75 115.47 39.75 115.47 39.75 158.47 35.75 163.47"/><line class="cls-5" x1="26.75" y1="127.47" x2="29.75" y2="127.47"/><line class="cls-5" x1="26.75" y1="133.47" x2="29.75" y2="133.47"/><line class="cls-5" x1="26.75" y1="145.47" x2="29.75" y2="145.47"/><line class="cls-5" x1="26.75" y1="151.47" x2="29.75" y2="151.47"/><polygon class="cls-5" points="86.25 146.47 96.25 153.47 105.25 149.47 105.25 144.47 101.25 140.47 101.25 144.47 97.25 146.47 97.25 134.47 90.25 130.47 92.25 138.47 86.25 146.47"/><polygon class="cls-8" points="108.75 163.47 83.75 163.47 88.75 157.47 103.75 157.47 108.75 163.47"/><polygon class="cls-7" points="102.75 70.28 102.75 61.09 107.02 56.47 84.48 56.47 88.75 61.09 88.75 70.28 69.75 81.24 69.75 111.14 95.75 125.97 121.75 111.14 121.75 81.24 102.75 70.28"/><polyline class="cls-5" points="69.75 96.45 74.95 92.47 80.15 96.45 85.35 92.47 90.55 96.45 95.75 92.47 100.95 96.45 106.15 92.47 111.35 96.45 116.55 92.47 121.75 96.47"/><polygon class="cls-5" points="49.25 163.47 55.25 155.47 61.25 163.47 49.25 163.47"/><polyline class="cls-5" points="136.25 155.47 124.75 105.47 66.75 105.47 55.25 155.47"/><polygon class="cls-4" points="142.25 163.47 136.25 155.47 130.25 163.47 142.25 163.47"/><line class="cls-5" x1="153.75" y1="159.47" x2="155.76" y2="155.48"/><polygon class="cls-7" points="180 163.47 167.25 137.53 167.25 125.47 170.75 121.47 155.25 121.47 158.75 125.47 158.75 137.53 146 163.47 180 163.47"/><line class="cls-5" x1="10" y1="163.47" x2="184" y2="163.47"/><line class="cls-5" x1="189" y1="163.47" x2="192" y2="163.47"/><line class="cls-5" x1="1" y1="163.47" x2="4" y2="163.47"/><line class="cls-5" x1="174.1" y1="151.47" x2="151.9" y2="151.47"/><rect class="cls-5" x="93.96" y="75.27" width="4.24" height="4.24" transform="translate(-26.58 90.61) rotate(-45)"/><rect class="cls-5" x="78.13" y="84.35" width="4.24" height="4.24" transform="translate(-37.64 82.07) rotate(-45)"/><path class="cls-2" d="M97.7,113.84a.2.2,0,0,0-.14.06l-1.88,1.88a.2.2,0,0,0,0,.28l1.88,1.88a.2.2,0,0,0,.28,0l1.88-1.88a.2.2,0,0,0,0-.28l-1.88-1.88a.2.2,0,0,0-.14-.06Z"/><path class="cls-2" d="M105.92,97.89a.2.2,0,0,0-.14.06l-1.88,1.88a.2.2,0,0,0,0,.28l1.88,1.88a.2.2,0,0,0,.28,0l1.88-1.88a.2.2,0,0,0,0-.28l-1.88-1.88a.2.2,0,0,0-.14-.06Z"/><path class="cls-2" d="M86.13,108.18a.2.2,0,0,0-.14.06l-1.88,1.88a.2.2,0,0,0,0,.28L86,112.28a.2.2,0,0,0,.28,0l1.88-1.88a.2.2,0,0,0,0-.28l-1.88-1.88a.2.2,0,0,0-.14-.06Z"/><line class="cls-5" x1="96.25" y1="157.47" x2="96.25" y2="159.47"/><line class="cls-5" x1="91.75" y1="157.47" x2="91.75" y2="159.47"/><line class="cls-5" x1="100.75" y1="157.47" x2="100.75" y2="159.47"/><line class="cls-5" x1="22.75" y1="139.47" x2="39.75" y2="139.47"/></g></g></svg>